<?xml version="1.0" encoding="UTF-8" standalone="no"?>
<!-- Generator: Adobe Illustrator 19.2.0, SVG Export Plug-In . SVG Version: 6.00 Build 0)  -->

<svg
   xmlns:dc="http://purl.org/dc/elements/1.1/"
   xmlns:cc="http://creativecommons.org/ns#"
   xmlns:rdf="http://www.w3.org/1999/02/22-rdf-syntax-ns#"
   xmlns:svg="http://www.w3.org/2000/svg"
   xmlns="http://www.w3.org/2000/svg"
   xmlns:sodipodi="http://sodipodi.sourceforge.net/DTD/sodipodi-0.dtd"
   xmlns:inkscape="http://www.inkscape.org/namespaces/inkscape"
   version="1.1"
   id="Layer_1"
   x="0px"
   y="0px"
   viewBox="0 0 1405 801"
   style="enable-background:new 0 0 1405 801;"
   xml:space="preserve"
   inkscape:version="0.91pre2 r13516"
   sodipodi:docname="logo-blue.svg"><metadata
     id="metadata318"><rdf:RDF><cc:Work
         rdf:about=""><dc:format>image/svg+xml</dc:format><dc:type
           rdf:resource="http://purl.org/dc/dcmitype/StillImage" /><dc:title></dc:title></cc:Work></rdf:RDF></metadata><defs
     id="defs316" /><sodipodi:namedview
     pagecolor="#ffffff"
     bordercolor="#666666"
     borderopacity="1"
     objecttolerance="10"
     gridtolerance="10"
     guidetolerance="10"
     inkscape:pageopacity="0"
     inkscape:pageshadow="2"
     inkscape:window-width="1920"
     inkscape:window-height="1181"
     id="namedview314"
     showgrid="false"
     inkscape:zoom="0.40427046"
     inkscape:cx="1201.8161"
     inkscape:cy="138.62374"
     inkscape:window-x="-8"
     inkscape:window-y="-8"
     inkscape:window-maximized="1"
     inkscape:current-layer="Layer_1" /><style
     type="text/css"
     id="style3">
	.st0{fill:#454F9C;}
	.st1{fill:#2F3F85;}
	.st2{fill:#6A6DB3;}
	.st3{fill:none;stroke:#1D1B1C;stroke-miterlimit:10;}
</style><g
     id="XMLID_1_"><g
       id="g6"><polygon
         class="st0"
         points="522,540 522,612 360,531 360,459"
         id="polygon8" /><polygon
         class="st0"
         points="1242,540 1242,612 1080,531 1080,459"
         id="polygon10" /><polygon
         class="st1"
         points="522,612 522,540 612,495 612,423 684,387 684,531"
         id="polygon12" /><polygon
         class="st1"
         points="1242,540 1332,495 1332,423 1404,387 1404,531 1242,612"
         id="polygon14" /><polygon
         class="st0"
         points="882,729 882,801 720,720 720,648"
         id="polygon16" /><polygon
         class="st1"
         points="882,801 882,729 972,684 972,216 1044,180 1044,720"
         id="polygon18" /><polygon
         class="st2"
         points="882,729 720,648 792,612 882,657 900,648 972,684"
         id="polygon20" /><polygon
         class="st2"
         points="522,540 360,459 432,423 522,468 540,459 612,495"
         id="polygon22" /><polygon
         class="st2"
         points="1242,540 1080,459 1152,423 1242,468 1260,459 1332,495"
         id="polygon24" /><polygon
         class="st0"
         points="972,684 900,648 900,180 972,216"
         id="polygon26" /><polygon
         class="st0"
         points="612,495 540,459 360,369 360,225 432,261 432,333 612,423"
         id="polygon28" /><polygon
         class="st0"
         points="1332,495 1260,459 1080,369 1080,225 1152,261 1152,333 1332,423"
         id="polygon30" /><polygon
         class="st0"
         points="792,495 792,567 720,531 720,459"
         id="polygon32" /><polygon
         class="st2"
         points="720,459 792,423 864,459 792,495"
         id="polygon34" /><polygon
         class="st1"
         points="1404,225 1404,297 1332,333 1332,261"
         id="polygon36" /><polygon
         class="st2"
         points="1404,225 1332,261 1242,216 1152,261 1080,225 1242,144"
         id="polygon38" /><polygon
         class="st2"
         points="1404,387 1332,423 1152,333 1224,297"
         id="polygon40" /><polygon
         class="st0"
         points="1332,261 1332,333 1242,288 1242,216"
         id="polygon42" /><polygon
         class="st1"
         points="1242,216 1242,288 1224,297 1152,333 1152,261"
         id="polygon44" /><polygon
         class="st1"
         points="1044,36 1044,108 972,144 972,72"
         id="polygon46" /><polygon
         class="st2"
         points="1044,36 972,72 900,36 972,0"
         id="polygon48" /><polygon
         class="st2"
         points="1044,180 972,216 900,180 972,144"
         id="polygon50" /><polygon
         class="st0"
         points="972,72 972,144 900,108 900,36"
         id="polygon52" /><polygon
         class="st1"
         points="864,459 864,531 792,567 792,495"
         id="polygon54" /><polygon
         class="st1"
         points="684,225 684,297 612,333 612,261"
         id="polygon56" /><polygon
         class="st2"
         points="684,225 612,261 522,216 432,261 360,225 522,144"
         id="polygon58" /><polygon
         class="st2"
         points="684,387 612,423 432,333 504,297"
         id="polygon60" /><polygon
         class="st0"
         points="612,261 612,333 522,288 522,216"
         id="polygon62" /><polygon
         class="st1"
         points="522,216 522,288 504,297 432,333 432,261"
         id="polygon64" /><polygon
         class="st1"
         points="324,225 324,531 162,612 162,540 252,495 252,261"
         id="polygon66" /><polygon
         class="st2"
         points="324,225 252,261 162,216 72,261 0,225 162,144"
         id="polygon68" /><polygon
         class="st0"
         points="252,261 252,495 180,459 180,297 162,288 162,216"
         id="polygon70" /><polygon
         class="st2"
         points="252,495 162,540 72,495 144,459 162,468 180,459"
         id="polygon72" /><polygon
         class="st0"
         points="162,540 162,612 0,531 0,225 72,261 72,495"
         id="polygon74" /><polygon
         class="st1"
         points="162,216 162,288 144,297 144,459 72,495 72,261"
         id="polygon76" /></g><g
       id="g78"><line
         class="st3"
         x1="1242"
         y1="144"
         x2="1080"
         y2="225"
         id="line80" /><line
         class="st3"
         x1="1242"
         y1="144"
         x2="1404"
         y2="225"
         id="line82" /><line
         class="st3"
         x1="1242"
         y1="216"
         x2="1242"
         y2="288"
         id="line84" /><line
         class="st3"
         x1="1242"
         y1="216"
         x2="1152"
         y2="261"
         id="line86" /><line
         class="st3"
         x1="1080"
         y1="225"
         x2="1152"
         y2="261"
         id="line88" /><line
         class="st3"
         x1="1404"
         y1="225"
         x2="1332"
         y2="261"
         id="line90" /><line
         class="st3"
         x1="1242"
         y1="216"
         x2="1332"
         y2="261"
         id="line92" /><polyline
         class="st3"
         points="1242,288 1224,297 1152,333"
         id="polyline94" /><line
         class="st3"
         x1="1152"
         y1="261"
         x2="1152"
         y2="333"
         id="line96" /><line
         class="st3"
         x1="1404"
         y1="225"
         x2="1404"
         y2="297"
         id="line98" /><line
         class="st3"
         x1="1332"
         y1="261"
         x2="1332"
         y2="333"
         id="line100" /><line
         class="st3"
         x1="1404"
         y1="297"
         x2="1332"
         y2="333"
         id="line102" /><line
         class="st3"
         x1="1242"
         y1="288"
         x2="1332"
         y2="333"
         id="line104" /><line
         class="st3"
         x1="1080"
         y1="225"
         x2="1080"
         y2="369"
         id="line106" /><polyline
         class="st3"
         points="1080,369 1260,459 1332,495"
         id="polyline108" /><line
         class="st3"
         x1="1152"
         y1="333"
         x2="1332"
         y2="423"
         id="line110" /><line
         class="st3"
         x1="1332"
         y1="423"
         x2="1332"
         y2="495"
         id="line112" /><line
         class="st3"
         x1="1332"
         y1="423"
         x2="1404"
         y2="387"
         id="line114" /><line
         class="st3"
         x1="1404"
         y1="387"
         x2="1224"
         y2="297"
         id="line116" /><line
         class="st3"
         x1="1152"
         y1="423"
         x2="1080"
         y2="459"
         id="line118" /><line
         class="st3"
         x1="1404"
         y1="387"
         x2="1404"
         y2="531"
         id="line120" /><line
         class="st3"
         x1="1080"
         y1="459"
         x2="1080"
         y2="531"
         id="line122" /><line
         class="st3"
         x1="1152"
         y1="423"
         x2="1242"
         y2="468"
         id="line124" /><line
         class="st3"
         x1="1260"
         y1="459"
         x2="1242"
         y2="468"
         id="line126" /><line
         class="st3"
         x1="1242"
         y1="540"
         x2="1332"
         y2="495"
         id="line128" /><line
         class="st3"
         x1="1080"
         y1="459"
         x2="1242"
         y2="540"
         id="line130" /><line
         class="st3"
         x1="1404"
         y1="531"
         x2="1242"
         y2="612"
         id="line132" /><line
         class="st3"
         x1="1080"
         y1="531"
         x2="1242"
         y2="612"
         id="line134" /><line
         class="st3"
         x1="1044"
         y1="36"
         x2="972"
         y2="72"
         id="line136" /><line
         class="st3"
         x1="1044"
         y1="36"
         x2="1044"
         y2="108"
         id="line138" /><line
         class="st3"
         x1="972"
         y1="72"
         x2="972"
         y2="144"
         id="line140" /><line
         class="st3"
         x1="1044"
         y1="108"
         x2="972"
         y2="144"
         id="line142" /><line
         class="st3"
         x1="792"
         y1="612"
         x2="720"
         y2="648"
         id="line144" /><line
         class="st3"
         x1="720"
         y1="648"
         x2="720"
         y2="720"
         id="line146" /><line
         class="st3"
         x1="792"
         y1="612"
         x2="882"
         y2="657"
         id="line148" /><line
         class="st3"
         x1="900"
         y1="648"
         x2="882"
         y2="657"
         id="line150" /><line
         class="st3"
         x1="882"
         y1="729"
         x2="972"
         y2="684"
         id="line152" /><line
         class="st3"
         x1="720"
         y1="648"
         x2="882"
         y2="729"
         id="line154" /><line
         class="st3"
         x1="1044"
         y1="720"
         x2="882"
         y2="801"
         id="line156" /><line
         class="st3"
         x1="720"
         y1="720"
         x2="882"
         y2="801"
         id="line158" /><line
         class="st3"
         x1="1044"
         y1="36"
         x2="972"
         y2="0"
         id="line160" /><line
         class="st3"
         x1="972"
         y1="0"
         x2="900"
         y2="36"
         id="line162" /><line
         class="st3"
         x1="972"
         y1="72"
         x2="900"
         y2="36"
         id="line164" /><line
         class="st3"
         x1="900"
         y1="108"
         x2="972"
         y2="144"
         id="line166" /><line
         class="st3"
         x1="900"
         y1="36"
         x2="900"
         y2="108"
         id="line168" /><line
         class="st3"
         x1="1044"
         y1="180"
         x2="972"
         y2="216"
         id="line170" /><line
         class="st3"
         x1="1044"
         y1="180"
         x2="972"
         y2="144"
         id="line172" /><line
         class="st3"
         x1="972"
         y1="144"
         x2="900"
         y2="180"
         id="line174" /><line
         class="st3"
         x1="972"
         y1="216"
         x2="900"
         y2="180"
         id="line176" /><line
         class="st3"
         x1="900"
         y1="180"
         x2="900"
         y2="648"
         id="line178" /><line
         class="st3"
         x1="1044"
         y1="180"
         x2="1044"
         y2="720"
         id="line180" /><line
         class="st3"
         x1="972"
         y1="684"
         x2="972"
         y2="216"
         id="line182" /><line
         class="st3"
         x1="900"
         y1="648"
         x2="972"
         y2="684"
         id="line184" /><line
         class="st3"
         x1="864"
         y1="459"
         x2="792"
         y2="495"
         id="line186" /><line
         class="st3"
         x1="864"
         y1="459"
         x2="864"
         y2="531"
         id="line188" /><line
         class="st3"
         x1="792"
         y1="495"
         x2="792"
         y2="567"
         id="line190" /><line
         class="st3"
         x1="864"
         y1="531"
         x2="792"
         y2="567"
         id="line192" /><line
         class="st3"
         x1="864"
         y1="459"
         x2="792"
         y2="423"
         id="line194" /><line
         class="st3"
         x1="792"
         y1="423"
         x2="720"
         y2="459"
         id="line196" /><line
         class="st3"
         x1="792"
         y1="495"
         x2="720"
         y2="459"
         id="line198" /><line
         class="st3"
         x1="720"
         y1="531"
         x2="792"
         y2="567"
         id="line200" /><line
         class="st3"
         x1="720"
         y1="459"
         x2="720"
         y2="531"
         id="line202" /><line
         class="st3"
         x1="522"
         y1="144"
         x2="360"
         y2="225"
         id="line204" /><line
         class="st3"
         x1="522"
         y1="144"
         x2="684"
         y2="225"
         id="line206" /><line
         class="st3"
         x1="522"
         y1="216"
         x2="522"
         y2="288"
         id="line208" /><line
         class="st3"
         x1="522"
         y1="216"
         x2="432"
         y2="261"
         id="line210" /><line
         class="st3"
         x1="360"
         y1="225"
         x2="432"
         y2="261"
         id="line212" /><line
         class="st3"
         x1="684"
         y1="225"
         x2="612"
         y2="261"
         id="line214" /><line
         class="st3"
         x1="522"
         y1="216"
         x2="612"
         y2="261"
         id="line216" /><polyline
         class="st3"
         points="522,288 504,297 432,333"
         id="polyline218" /><line
         class="st3"
         x1="432"
         y1="261"
         x2="432"
         y2="333"
         id="line220" /><line
         class="st3"
         x1="684"
         y1="225"
         x2="684"
         y2="297"
         id="line222" /><line
         class="st3"
         x1="612"
         y1="261"
         x2="612"
         y2="333"
         id="line224" /><line
         class="st3"
         x1="684"
         y1="297"
         x2="612"
         y2="333"
         id="line226" /><line
         class="st3"
         x1="522"
         y1="288"
         x2="612"
         y2="333"
         id="line228" /><line
         class="st3"
         x1="360"
         y1="225"
         x2="360"
         y2="369"
         id="line230" /><polyline
         class="st3"
         points="360,369 540,459 612,495"
         id="polyline232" /><line
         class="st3"
         x1="432"
         y1="333"
         x2="612"
         y2="423"
         id="line234" /><line
         class="st3"
         x1="612"
         y1="423"
         x2="612"
         y2="495"
         id="line236" /><line
         class="st3"
         x1="612"
         y1="423"
         x2="684"
         y2="387"
         id="line238" /><line
         class="st3"
         x1="684"
         y1="387"
         x2="504"
         y2="297"
         id="line240" /><line
         class="st3"
         x1="432"
         y1="423"
         x2="360"
         y2="459"
         id="line242" /><line
         class="st3"
         x1="684"
         y1="387"
         x2="684"
         y2="531"
         id="line244" /><line
         class="st3"
         x1="360"
         y1="459"
         x2="360"
         y2="531"
         id="line246" /><line
         class="st3"
         x1="432"
         y1="423"
         x2="522"
         y2="468"
         id="line248" /><line
         class="st3"
         x1="540"
         y1="459"
         x2="522"
         y2="468"
         id="line250" /><line
         class="st3"
         x1="522"
         y1="540"
         x2="612"
         y2="495"
         id="line252" /><line
         class="st3"
         x1="360"
         y1="459"
         x2="522"
         y2="540"
         id="line254" /><line
         class="st3"
         x1="684"
         y1="531"
         x2="522"
         y2="612"
         id="line256" /><line
         class="st3"
         x1="360"
         y1="531"
         x2="522"
         y2="612"
         id="line258" /><line
         class="st3"
         x1="162"
         y1="144"
         x2="0"
         y2="225"
         id="line260" /><line
         class="st3"
         x1="162"
         y1="144"
         x2="324"
         y2="225"
         id="line262" /><line
         class="st3"
         x1="162"
         y1="216"
         x2="162"
         y2="288"
         id="line264" /><line
         class="st3"
         x1="162"
         y1="216"
         x2="72"
         y2="261"
         id="line266" /><line
         class="st3"
         x1="0"
         y1="225"
         x2="72"
         y2="261"
         id="line268" /><line
         class="st3"
         x1="324"
         y1="225"
         x2="252"
         y2="261"
         id="line270" /><line
         class="st3"
         x1="162"
         y1="216"
         x2="252"
         y2="261"
         id="line272" /><line
         class="st3"
         x1="162"
         y1="288"
         x2="180"
         y2="297"
         id="line274" /><line
         class="st3"
         x1="180"
         y1="459"
         x2="252"
         y2="495"
         id="line276" /><line
         class="st3"
         x1="252"
         y1="261"
         x2="252"
         y2="495"
         id="line278" /><line
         class="st3"
         x1="324"
         y1="225"
         x2="324"
         y2="531"
         id="line280" /><line
         class="st3"
         x1="180"
         y1="459"
         x2="162"
         y2="468"
         id="line282" /><line
         class="st3"
         x1="162"
         y1="540"
         x2="252"
         y2="495"
         id="line284" /><line
         class="st3"
         x1="324"
         y1="531"
         x2="162"
         y2="612"
         id="line286" /><line
         class="st3"
         x1="0"
         y1="531"
         x2="162"
         y2="612"
         id="line288" /><line
         class="st3"
         x1="180"
         y1="459"
         x2="180"
         y2="297"
         id="line290" /><line
         class="st3"
         x1="144"
         y1="297"
         x2="162"
         y2="288"
         id="line292" /><line
         class="st3"
         x1="144"
         y1="297"
         x2="144"
         y2="459"
         id="line294" /><line
         class="st3"
         x1="144"
         y1="459"
         x2="162"
         y2="468"
         id="line296" /><line
         class="st3"
         x1="144"
         y1="459"
         x2="72"
         y2="495"
         id="line298" /><line
         class="st3"
         x1="72"
         y1="495"
         x2="162"
         y2="540"
         id="line300" /><line
         class="st3"
         x1="162"
         y1="540"
         x2="162"
         y2="612"
         id="line302" /><line
         class="st3"
         x1="72"
         y1="495"
         x2="72"
         y2="261"
         id="line304" /><line
         class="st3"
         x1="0"
         y1="531"
         x2="0"
         y2="225"
         id="line306" /><line
         class="st3"
         x1="522"
         y1="540"
         x2="522"
         y2="612"
         id="line308" /><line
         class="st3"
         x1="882"
         y1="729"
         x2="882"
         y2="801"
         id="line310" /><line
         class="st3"
         x1="1242"
         y1="540"
         x2="1242"
         y2="612"
         id="line312" /></g></g></svg>