<?xml version="1.0" encoding="UTF-8" standalone="no"?>
<!-- Generator: Adobe Illustrator 16.0.4, SVG Export Plug-In . SVG Version: 6.00 Build 0)  -->

<svg
   xmlns:ns1="&amp;#38;#38;ns_ai;"
   xmlns:ns0="&amp;#38;#38;ns_sfw;"
   xmlns:dc="http://purl.org/dc/elements/1.1/"
   xmlns:cc="http://creativecommons.org/ns#"
   xmlns:rdf="http://www.w3.org/1999/02/22-rdf-syntax-ns#"
   xmlns:svg="http://www.w3.org/2000/svg"
   xmlns="http://www.w3.org/2000/svg"
   xmlns:sodipodi="http://sodipodi.sourceforge.net/DTD/sodipodi-0.dtd"
   xmlns:inkscape="http://www.inkscape.org/namespaces/inkscape"
   version="1.1"
   id="Capa_1"
   x="0px"
   y="0px"
   width="792px"
   height="612px"
   viewBox="0 0 792 612"
   enable-background="new 0 0 792 612"
   xml:space="preserve"
   inkscape:version="0.91pre2 r13516"
   sodipodi:docname="osjs-logo-vert-color.svg"><defs
     id="defs4728" /><sodipodi:namedview
     pagecolor="#ffffff"
     bordercolor="#666666"
     borderopacity="1"
     objecttolerance="10"
     gridtolerance="10"
     guidetolerance="10"
     inkscape:pageopacity="0"
     inkscape:pageshadow="2"
     inkscape:window-width="1920"
     inkscape:window-height="1181"
     id="namedview4726"
     showgrid="false"
     inkscape:zoom="1.014234"
     inkscape:cx="592.08193"
     inkscape:cy="30.03686"
     inkscape:window-x="-5"
     inkscape:window-y="-5"
     inkscape:window-maximized="1"
     inkscape:current-layer="Capa_1" /><metadata
     id="metadata4716"><ns0:sfw><ns0:slices /><ns0:sliceSourceBounds
         width="152.03564"
         height="223.43774"
         bottomLeftOrigin="true"
         y="-417.85938"
         x="306.66748" /></ns0:sfw><rdf:RDF><cc:Work
         rdf:about=""><dc:format>image/svg+xml</dc:format><dc:type
           rdf:resource="http://purl.org/dc/dcmitype/StillImage" /><dc:title /></cc:Work></rdf:RDF></metadata><ns1:pgf
     id="adobe_illustrator_pgf" /><g
     id="g5310"
     transform="translate(-11.090245,5.7188182)"><path
       id="path4144"
       d="m 381.8134,299.94789 c 0.0532,0 0.10567,-0.0133 0.15341,-0.0399 l 34.41722,-19.87204 c 0.0947,-0.0532 0.15341,-0.15498 0.15341,-0.26455 l 0,-39.17509 c 0,-0.10878 -0.0587,-0.20975 -0.15341,-0.26453 -0.094,-0.0549 -0.21132,-0.0549 -0.30523,0 l -34.2654,19.78281 0,39.83331 z"
       style="fill:#662483"
       inkscape:connector-curvature="0" /><path
       id="path4152"
       d="m 381.8134,325.73461 c 0.0532,0 0.10644,-0.0142 0.15341,-0.0407 l 56.25847,-32.48089 c 0.094,-0.0547 0.15183,-0.15496 0.15183,-0.26455 l 0,-64.961 c 0,-0.10957 -0.058,-0.21055 -0.15183,-0.26454 l -56.25847,-32.48088 c -0.047,-0.0275 -0.10014,-0.0406 -0.15341,-0.0406 l 0,13.36335 7.9e-4,-7.9e-4 44.94964,25.95185 0,51.9037 -44.94964,25.95183 -7.9e-4,-7.8e-4 0,13.36413 z"
       style="fill:#662483"
       inkscape:connector-curvature="0" /><path
       id="path4154"
       d="m 381.8134,312.37048 -56.10351,-32.55056 c -0.0956,-0.0548 -0.21211,-0.0548 -0.30681,0 -0.0939,0.0547 -0.15261,0.15652 -0.15261,0.26455 l 0,12.86398 c 0,0.10959 0.0587,0.21133 0.15261,0.26455 l 56.25849,32.48089 c 0,0 0.0987,0.0406 0.15183,0.0406 l 0,-13.36413 z"
       style="fill:#29235c"
       inkscape:connector-curvature="0" /><path
       id="path4156"
       d="m 381.8134,299.94789 0,-39.83331 -44.64363,-25.77496 44.64363,-25.77496 0,-13.36335 c -0.0524,0 -0.10488,0.0133 -0.15183,0.0406 l -56.25849,32.48089 c -0.0947,0.0539 -0.1534,0.15497 -0.1534,0.26455 l 0,39.17508 c 0,0.10879 0.0587,0.20976 0.1534,0.26454 l 56.2577,32.4809 c 0,10e-6 0.0775,0.0399 0.15262,0.0399"
       style="fill:#29235c"
       inkscape:connector-curvature="0" /></g><text
     y="394.07281"
     x="282.73492"
     style="font-size:63.77703094px;font-family:SourceSansPro-Black;letter-spacing:-2.12590122;fill:#29235c"
     font-size="120"
     letter-spacing="-4"
     id="text4158"><tspan
       style="font-style:normal;font-variant:normal;font-weight:bold;font-stretch:normal;font-family:SourceSansPro-Black;-inkscape-font-specification:'SourceSansPro-Black Bold'"
       id="tspan5308">OS.js</tspan></text>
</svg>