<?xml version="1.0" encoding="UTF-8" standalone="no"?>
<!-- Generator: Adobe Illustrator 19.2.0, SVG Export Plug-In . SVG Version: 6.00 Build 0)  -->

<svg
   xmlns:dc="http://purl.org/dc/elements/1.1/"
   xmlns:cc="http://creativecommons.org/ns#"
   xmlns:rdf="http://www.w3.org/1999/02/22-rdf-syntax-ns#"
   xmlns:svg="http://www.w3.org/2000/svg"
   xmlns="http://www.w3.org/2000/svg"
   xmlns:sodipodi="http://sodipodi.sourceforge.net/DTD/sodipodi-0.dtd"
   xmlns:inkscape="http://www.inkscape.org/namespaces/inkscape"
   version="1.1"
   id="Layer_1"
   x="0px"
   y="0px"
   viewBox="0 0 1405 801"
   style="enable-background:new 0 0 1405 801;"
   xml:space="preserve"
   inkscape:version="0.91pre2 r13516"
   sodipodi:docname="logo-white.svg"
   inkscape:export-filename="C:\Users\Anders\Desktop\os\logo-header-small.png"
   inkscape:export-xdpi="4.4893689"
   inkscape:export-ydpi="4.4893689"><metadata
     id="metadata4764"><rdf:RDF><cc:Work
         rdf:about=""><dc:format>image/svg+xml</dc:format><dc:type
           rdf:resource="http://purl.org/dc/dcmitype/StillImage" /><dc:title></dc:title></cc:Work></rdf:RDF></metadata><defs
     id="defs4762" /><sodipodi:namedview
     pagecolor="#ffffff"
     bordercolor="#666666"
     borderopacity="1"
     objecttolerance="10"
     gridtolerance="10"
     guidetolerance="10"
     inkscape:pageopacity="0"
     inkscape:pageshadow="2"
     inkscape:window-width="1920"
     inkscape:window-height="1181"
     id="namedview4760"
     showgrid="false"
     inkscape:zoom="0.40427046"
     inkscape:cx="669.43792"
     inkscape:cy="443.02328"
     inkscape:window-x="-8"
     inkscape:window-y="-8"
     inkscape:window-maximized="1"
     inkscape:current-layer="Layer_1" /><style
     type="text/css"
     id="style4449">
	.st0{fill:#FFF;}
	.st1{fill:#EEE;}
	.st2{fill:#DDD;}
	.st3{fill:none;stroke:#FFF;stroke-miterlimit:10;}
</style><g
     id="XMLID_1_"><g
       id="g4452"><polygon
         class="st0"
         points="522,540 522,612 360,531 360,459"
         id="polygon4454" /><polygon
         class="st0"
         points="1242,540 1242,612 1080,531 1080,459"
         id="polygon4456" /><polygon
         class="st1"
         points="522,612 522,540 612,495 612,423 684,387 684,531"
         id="polygon4458" /><polygon
         class="st1"
         points="1242,540 1332,495 1332,423 1404,387 1404,531 1242,612"
         id="polygon4460" /><polygon
         class="st0"
         points="882,729 882,801 720,720 720,648"
         id="polygon4462" /><polygon
         class="st1"
         points="882,801 882,729 972,684 972,216 1044,180 1044,720"
         id="polygon4464" /><polygon
         class="st2"
         points="882,729 720,648 792,612 882,657 900,648 972,684"
         id="polygon4466" /><polygon
         class="st2"
         points="522,540 360,459 432,423 522,468 540,459 612,495"
         id="polygon4468" /><polygon
         class="st2"
         points="1242,540 1080,459 1152,423 1242,468 1260,459 1332,495"
         id="polygon4470" /><polygon
         class="st0"
         points="972,684 900,648 900,180 972,216"
         id="polygon4472" /><polygon
         class="st0"
         points="612,495 540,459 360,369 360,225 432,261 432,333 612,423"
         id="polygon4474" /><polygon
         class="st0"
         points="1332,495 1260,459 1080,369 1080,225 1152,261 1152,333 1332,423"
         id="polygon4476" /><polygon
         class="st0"
         points="792,495 792,567 720,531 720,459"
         id="polygon4478" /><polygon
         class="st2"
         points="720,459 792,423 864,459 792,495"
         id="polygon4480" /><polygon
         class="st1"
         points="1404,225 1404,297 1332,333 1332,261"
         id="polygon4482" /><polygon
         class="st2"
         points="1404,225 1332,261 1242,216 1152,261 1080,225 1242,144"
         id="polygon4484" /><polygon
         class="st2"
         points="1404,387 1332,423 1152,333 1224,297"
         id="polygon4486" /><polygon
         class="st0"
         points="1332,261 1332,333 1242,288 1242,216"
         id="polygon4488" /><polygon
         class="st1"
         points="1242,216 1242,288 1224,297 1152,333 1152,261"
         id="polygon4490" /><polygon
         class="st1"
         points="1044,36 1044,108 972,144 972,72"
         id="polygon4492" /><polygon
         class="st2"
         points="1044,36 972,72 900,36 972,0"
         id="polygon4494" /><polygon
         class="st2"
         points="1044,180 972,216 900,180 972,144"
         id="polygon4496" /><polygon
         class="st0"
         points="972,72 972,144 900,108 900,36"
         id="polygon4498" /><polygon
         class="st1"
         points="864,459 864,531 792,567 792,495"
         id="polygon4500" /><polygon
         class="st1"
         points="684,225 684,297 612,333 612,261"
         id="polygon4502" /><polygon
         class="st2"
         points="684,225 612,261 522,216 432,261 360,225 522,144"
         id="polygon4504" /><polygon
         class="st2"
         points="684,387 612,423 432,333 504,297"
         id="polygon4506" /><polygon
         class="st0"
         points="612,261 612,333 522,288 522,216"
         id="polygon4508" /><polygon
         class="st1"
         points="522,216 522,288 504,297 432,333 432,261"
         id="polygon4510" /><polygon
         class="st1"
         points="324,225 324,531 162,612 162,540 252,495 252,261"
         id="polygon4512" /><polygon
         class="st2"
         points="324,225 252,261 162,216 72,261 0,225 162,144"
         id="polygon4514" /><polygon
         class="st0"
         points="252,261 252,495 180,459 180,297 162,288 162,216"
         id="polygon4516" /><polygon
         class="st2"
         points="252,495 162,540 72,495 144,459 162,468 180,459"
         id="polygon4518" /><polygon
         class="st0"
         points="162,540 162,612 0,531 0,225 72,261 72,495"
         id="polygon4520" /><polygon
         class="st1"
         points="162,216 162,288 144,297 144,459 72,495 72,261"
         id="polygon4522" /></g><g
       id="g4524"><line
         class="st3"
         x1="1242"
         y1="144"
         x2="1080"
         y2="225"
         id="line4526" /><line
         class="st3"
         x1="1242"
         y1="144"
         x2="1404"
         y2="225"
         id="line4528" /><line
         class="st3"
         x1="1242"
         y1="216"
         x2="1242"
         y2="288"
         id="line4530" /><line
         class="st3"
         x1="1242"
         y1="216"
         x2="1152"
         y2="261"
         id="line4532" /><line
         class="st3"
         x1="1080"
         y1="225"
         x2="1152"
         y2="261"
         id="line4534" /><line
         class="st3"
         x1="1404"
         y1="225"
         x2="1332"
         y2="261"
         id="line4536" /><line
         class="st3"
         x1="1242"
         y1="216"
         x2="1332"
         y2="261"
         id="line4538" /><polyline
         class="st3"
         points="1242,288 1224,297 1152,333"
         id="polyline4540" /><line
         class="st3"
         x1="1152"
         y1="261"
         x2="1152"
         y2="333"
         id="line4542" /><line
         class="st3"
         x1="1404"
         y1="225"
         x2="1404"
         y2="297"
         id="line4544" /><line
         class="st3"
         x1="1332"
         y1="261"
         x2="1332"
         y2="333"
         id="line4546" /><line
         class="st3"
         x1="1404"
         y1="297"
         x2="1332"
         y2="333"
         id="line4548" /><line
         class="st3"
         x1="1242"
         y1="288"
         x2="1332"
         y2="333"
         id="line4550" /><line
         class="st3"
         x1="1080"
         y1="225"
         x2="1080"
         y2="369"
         id="line4552" /><polyline
         class="st3"
         points="1080,369 1260,459 1332,495"
         id="polyline4554" /><line
         class="st3"
         x1="1152"
         y1="333"
         x2="1332"
         y2="423"
         id="line4556" /><line
         class="st3"
         x1="1332"
         y1="423"
         x2="1332"
         y2="495"
         id="line4558" /><line
         class="st3"
         x1="1332"
         y1="423"
         x2="1404"
         y2="387"
         id="line4560" /><line
         class="st3"
         x1="1404"
         y1="387"
         x2="1224"
         y2="297"
         id="line4562" /><line
         class="st3"
         x1="1152"
         y1="423"
         x2="1080"
         y2="459"
         id="line4564" /><line
         class="st3"
         x1="1404"
         y1="387"
         x2="1404"
         y2="531"
         id="line4566" /><line
         class="st3"
         x1="1080"
         y1="459"
         x2="1080"
         y2="531"
         id="line4568" /><line
         class="st3"
         x1="1152"
         y1="423"
         x2="1242"
         y2="468"
         id="line4570" /><line
         class="st3"
         x1="1260"
         y1="459"
         x2="1242"
         y2="468"
         id="line4572" /><line
         class="st3"
         x1="1242"
         y1="540"
         x2="1332"
         y2="495"
         id="line4574" /><line
         class="st3"
         x1="1080"
         y1="459"
         x2="1242"
         y2="540"
         id="line4576" /><line
         class="st3"
         x1="1404"
         y1="531"
         x2="1242"
         y2="612"
         id="line4578" /><line
         class="st3"
         x1="1080"
         y1="531"
         x2="1242"
         y2="612"
         id="line4580" /><line
         class="st3"
         x1="1044"
         y1="36"
         x2="972"
         y2="72"
         id="line4582" /><line
         class="st3"
         x1="1044"
         y1="36"
         x2="1044"
         y2="108"
         id="line4584" /><line
         class="st3"
         x1="972"
         y1="72"
         x2="972"
         y2="144"
         id="line4586" /><line
         class="st3"
         x1="1044"
         y1="108"
         x2="972"
         y2="144"
         id="line4588" /><line
         class="st3"
         x1="792"
         y1="612"
         x2="720"
         y2="648"
         id="line4590" /><line
         class="st3"
         x1="720"
         y1="648"
         x2="720"
         y2="720"
         id="line4592" /><line
         class="st3"
         x1="792"
         y1="612"
         x2="882"
         y2="657"
         id="line4594" /><line
         class="st3"
         x1="900"
         y1="648"
         x2="882"
         y2="657"
         id="line4596" /><line
         class="st3"
         x1="882"
         y1="729"
         x2="972"
         y2="684"
         id="line4598" /><line
         class="st3"
         x1="720"
         y1="648"
         x2="882"
         y2="729"
         id="line4600" /><line
         class="st3"
         x1="1044"
         y1="720"
         x2="882"
         y2="801"
         id="line4602" /><line
         class="st3"
         x1="720"
         y1="720"
         x2="882"
         y2="801"
         id="line4604" /><line
         class="st3"
         x1="1044"
         y1="36"
         x2="972"
         y2="0"
         id="line4606" /><line
         class="st3"
         x1="972"
         y1="0"
         x2="900"
         y2="36"
         id="line4608" /><line
         class="st3"
         x1="972"
         y1="72"
         x2="900"
         y2="36"
         id="line4610" /><line
         class="st3"
         x1="900"
         y1="108"
         x2="972"
         y2="144"
         id="line4612" /><line
         class="st3"
         x1="900"
         y1="36"
         x2="900"
         y2="108"
         id="line4614" /><line
         class="st3"
         x1="1044"
         y1="180"
         x2="972"
         y2="216"
         id="line4616" /><line
         class="st3"
         x1="1044"
         y1="180"
         x2="972"
         y2="144"
         id="line4618" /><line
         class="st3"
         x1="972"
         y1="144"
         x2="900"
         y2="180"
         id="line4620" /><line
         class="st3"
         x1="972"
         y1="216"
         x2="900"
         y2="180"
         id="line4622" /><line
         class="st3"
         x1="900"
         y1="180"
         x2="900"
         y2="648"
         id="line4624" /><line
         class="st3"
         x1="1044"
         y1="180"
         x2="1044"
         y2="720"
         id="line4626" /><line
         class="st3"
         x1="972"
         y1="684"
         x2="972"
         y2="216"
         id="line4628" /><line
         class="st3"
         x1="900"
         y1="648"
         x2="972"
         y2="684"
         id="line4630" /><line
         class="st3"
         x1="864"
         y1="459"
         x2="792"
         y2="495"
         id="line4632" /><line
         class="st3"
         x1="864"
         y1="459"
         x2="864"
         y2="531"
         id="line4634" /><line
         class="st3"
         x1="792"
         y1="495"
         x2="792"
         y2="567"
         id="line4636" /><line
         class="st3"
         x1="864"
         y1="531"
         x2="792"
         y2="567"
         id="line4638" /><line
         class="st3"
         x1="864"
         y1="459"
         x2="792"
         y2="423"
         id="line4640" /><line
         class="st3"
         x1="792"
         y1="423"
         x2="720"
         y2="459"
         id="line4642" /><line
         class="st3"
         x1="792"
         y1="495"
         x2="720"
         y2="459"
         id="line4644" /><line
         class="st3"
         x1="720"
         y1="531"
         x2="792"
         y2="567"
         id="line4646" /><line
         class="st3"
         x1="720"
         y1="459"
         x2="720"
         y2="531"
         id="line4648" /><line
         class="st3"
         x1="522"
         y1="144"
         x2="360"
         y2="225"
         id="line4650" /><line
         class="st3"
         x1="522"
         y1="144"
         x2="684"
         y2="225"
         id="line4652" /><line
         class="st3"
         x1="522"
         y1="216"
         x2="522"
         y2="288"
         id="line4654" /><line
         class="st3"
         x1="522"
         y1="216"
         x2="432"
         y2="261"
         id="line4656" /><line
         class="st3"
         x1="360"
         y1="225"
         x2="432"
         y2="261"
         id="line4658" /><line
         class="st3"
         x1="684"
         y1="225"
         x2="612"
         y2="261"
         id="line4660" /><line
         class="st3"
         x1="522"
         y1="216"
         x2="612"
         y2="261"
         id="line4662" /><polyline
         class="st3"
         points="522,288 504,297 432,333"
         id="polyline4664" /><line
         class="st3"
         x1="432"
         y1="261"
         x2="432"
         y2="333"
         id="line4666" /><line
         class="st3"
         x1="684"
         y1="225"
         x2="684"
         y2="297"
         id="line4668" /><line
         class="st3"
         x1="612"
         y1="261"
         x2="612"
         y2="333"
         id="line4670" /><line
         class="st3"
         x1="684"
         y1="297"
         x2="612"
         y2="333"
         id="line4672" /><line
         class="st3"
         x1="522"
         y1="288"
         x2="612"
         y2="333"
         id="line4674" /><line
         class="st3"
         x1="360"
         y1="225"
         x2="360"
         y2="369"
         id="line4676" /><polyline
         class="st3"
         points="360,369 540,459 612,495"
         id="polyline4678" /><line
         class="st3"
         x1="432"
         y1="333"
         x2="612"
         y2="423"
         id="line4680" /><line
         class="st3"
         x1="612"
         y1="423"
         x2="612"
         y2="495"
         id="line4682" /><line
         class="st3"
         x1="612"
         y1="423"
         x2="684"
         y2="387"
         id="line4684" /><line
         class="st3"
         x1="684"
         y1="387"
         x2="504"
         y2="297"
         id="line4686" /><line
         class="st3"
         x1="432"
         y1="423"
         x2="360"
         y2="459"
         id="line4688" /><line
         class="st3"
         x1="684"
         y1="387"
         x2="684"
         y2="531"
         id="line4690" /><line
         class="st3"
         x1="360"
         y1="459"
         x2="360"
         y2="531"
         id="line4692" /><line
         class="st3"
         x1="432"
         y1="423"
         x2="522"
         y2="468"
         id="line4694" /><line
         class="st3"
         x1="540"
         y1="459"
         x2="522"
         y2="468"
         id="line4696" /><line
         class="st3"
         x1="522"
         y1="540"
         x2="612"
         y2="495"
         id="line4698" /><line
         class="st3"
         x1="360"
         y1="459"
         x2="522"
         y2="540"
         id="line4700" /><line
         class="st3"
         x1="684"
         y1="531"
         x2="522"
         y2="612"
         id="line4702" /><line
         class="st3"
         x1="360"
         y1="531"
         x2="522"
         y2="612"
         id="line4704" /><line
         class="st3"
         x1="162"
         y1="144"
         x2="0"
         y2="225"
         id="line4706" /><line
         class="st3"
         x1="162"
         y1="144"
         x2="324"
         y2="225"
         id="line4708" /><line
         class="st3"
         x1="162"
         y1="216"
         x2="162"
         y2="288"
         id="line4710" /><line
         class="st3"
         x1="162"
         y1="216"
         x2="72"
         y2="261"
         id="line4712" /><line
         class="st3"
         x1="0"
         y1="225"
         x2="72"
         y2="261"
         id="line4714" /><line
         class="st3"
         x1="324"
         y1="225"
         x2="252"
         y2="261"
         id="line4716" /><line
         class="st3"
         x1="162"
         y1="216"
         x2="252"
         y2="261"
         id="line4718" /><line
         class="st3"
         x1="162"
         y1="288"
         x2="180"
         y2="297"
         id="line4720" /><line
         class="st3"
         x1="180"
         y1="459"
         x2="252"
         y2="495"
         id="line4722" /><line
         class="st3"
         x1="252"
         y1="261"
         x2="252"
         y2="495"
         id="line4724" /><line
         class="st3"
         x1="324"
         y1="225"
         x2="324"
         y2="531"
         id="line4726" /><line
         class="st3"
         x1="180"
         y1="459"
         x2="162"
         y2="468"
         id="line4728" /><line
         class="st3"
         x1="162"
         y1="540"
         x2="252"
         y2="495"
         id="line4730" /><line
         class="st3"
         x1="324"
         y1="531"
         x2="162"
         y2="612"
         id="line4732" /><line
         class="st3"
         x1="0"
         y1="531"
         x2="162"
         y2="612"
         id="line4734" /><line
         class="st3"
         x1="180"
         y1="459"
         x2="180"
         y2="297"
         id="line4736" /><line
         class="st3"
         x1="144"
         y1="297"
         x2="162"
         y2="288"
         id="line4738" /><line
         class="st3"
         x1="144"
         y1="297"
         x2="144"
         y2="459"
         id="line4740" /><line
         class="st3"
         x1="144"
         y1="459"
         x2="162"
         y2="468"
         id="line4742" /><line
         class="st3"
         x1="144"
         y1="459"
         x2="72"
         y2="495"
         id="line4744" /><line
         class="st3"
         x1="72"
         y1="495"
         x2="162"
         y2="540"
         id="line4746" /><line
         class="st3"
         x1="162"
         y1="540"
         x2="162"
         y2="612"
         id="line4748" /><line
         class="st3"
         x1="72"
         y1="495"
         x2="72"
         y2="261"
         id="line4750" /><line
         class="st3"
         x1="0"
         y1="531"
         x2="0"
         y2="225"
         id="line4752" /><line
         class="st3"
         x1="522"
         y1="540"
         x2="522"
         y2="612"
         id="line4754" /><line
         class="st3"
         x1="882"
         y1="729"
         x2="882"
         y2="801"
         id="line4756" /><line
         class="st3"
         x1="1242"
         y1="540"
         x2="1242"
         y2="612"
         id="line4758" /></g></g></svg>